<svg xmlns="http://www.w3.org/2000/svg" version="1.1" xmlns:xlink="http://www.w3.org/1999/xlink" xmlns:svgjs="http://svgjs.dev/svgjs" width="1500" height="488" viewBox="0 0 1500 488"><g transform="matrix(1,0,0,1,-0.9090909090909918,0.2599626045776233)"><svg viewBox="0 0 396 129" data-background-color="#ffffff" preserveAspectRatio="xMidYMid meet" height="488" width="1500" xmlns="http://www.w3.org/2000/svg" xmlns:xlink="http://www.w3.org/1999/xlink"><g id="tight-bounds" transform="matrix(1,0,0,1,0.2400000000000091,-0.06871962293138267)"><svg viewBox="0 0 395.52 129.13743924586277" height="129.13743924586277" width="395.52"><g><svg viewBox="0 0 395.52 129.13743924586277" height="129.13743924586277" width="395.52"><g><svg viewBox="0 0 395.52 129.13743924586277" height="129.13743924586277" width="395.52"><g id="textblocktransform"><svg viewBox="0 0 395.52 129.13743924586277" height="129.13743924586277" width="395.52" id="textblock"><g><svg viewBox="0 0 395.52 101.39406593490396" height="101.39406593490396" width="395.52"><rect width="395.52" height="101.39406593490396" x="0" y="0" opacity="1" fill="#ffffff" data-fill-palette-color="tertiary"></rect><g transform="matrix(1,0,0,1,23.461705032,23.461705032)"><svg width="348.596589936" viewBox="3.65 -34.55 223.34 34.9" height="54.47065587090396" data-palette-color="#16a249"><path d="M22.25-24.6L22.25-24.6Q22.25-26.7 20.63-27.48 19-28.25 15.2-28.25L15.2-28.25 15.2-20.6Q17.55-20.6 19.03-20.95 20.5-21.3 21.38-22.18 22.25-23.05 22.25-24.6ZM22.9-11.25L22.9-11.25Q22.9-12.9 22.05-13.8 21.2-14.7 19.6-15.08 18-15.45 15.2-15.45L15.2-15.45 15.2-6.8Q19.1-6.8 21-7.78 22.9-8.75 22.9-11.25ZM29.05-17.8L29.05-17.8Q33.7-15.05 33.7-10.45L33.7-10.45Q33.7-8.45 32.93-6.63 32.15-4.8 30.63-3.3 29.1-1.8 26.6-0.93 24.1-0.05 20.95-0.05L20.95-0.05 9.35-0.05Q6.3-0.05 4.98-1.6 3.65-3.15 3.65-7.15L3.65-7.15 3.65-28.3Q3.65-30 4.25-31.3 4.85-32.6 6.18-33.4 7.5-34.2 9.35-34.2L9.35-34.2 20.8-34.2Q25.8-34.15 29.13-31.48 32.45-28.8 32.45-24.6L32.45-24.6Q32.45-23.25 32.23-22.23 32-21.2 31.55-20.4 31.1-19.6 30.5-19 29.9-18.4 29.05-17.8ZM59.3 0L46.25 0Q43.95-0.05 42.55-0.73 41.15-1.4 40.45-2.95 39.75-4.5 39.75-7.1L39.75-7.1 39.75-28.25Q39.75-30.9 41.3-32.58 42.85-34.25 45.4-34.25L45.4-34.25Q48.4-34.25 49.82-33.15 51.25-32.05 51.25-28.7L51.25-28.7 51.25-8.65 59.8-8.65Q62.7-8.65 63.87-7.8 65.05-6.95 65.05-4.3L65.05-4.3Q65.05-1.6 63.7-0.8 62.35 0 59.3 0L59.3 0ZM83.65-7L83.65-7Q85.34-7 86.57-8.5 87.8-10 88.32-12.2 88.84-14.4 88.84-16.9L88.84-16.9Q88.84-19.45 88.3-21.73 87.75-24 86.52-25.6 85.3-27.2 83.65-27.2L83.65-27.2Q82.05-27.2 80.84-25.6 79.65-24 79.05-21.7 78.45-19.4 78.45-16.9L78.45-16.9Q78.45-14.4 79.02-12.2 79.59-10 80.82-8.5 82.05-7 83.65-7ZM92.5-1.68Q88.55 0.3 83.62 0.3 78.7 0.3 74.77-1.68 70.84-3.65 68.5-7.6 66.14-11.55 66.14-16.9L66.14-16.9Q66.14-25 71.02-29.78 75.9-34.55 83.65-34.55 91.4-34.55 96.3-29.78 101.19-25 101.19-16.9L101.19-16.9Q101.19-11.55 98.82-7.6 96.44-3.65 92.5-1.68ZM126.39-25.85L126.39-25.85Q126.39-27.4 124.34-27.4L124.34-27.4Q122.24-27.4 120.74-25.05 119.24-22.7 119.24-17.2L119.24-17.2Q119.24-12.1 120.97-9.78 122.69-7.45 125.04-7.45L125.04-7.45Q125.79-7.45 126.42-7.75 127.04-8.05 127.44-8.65 127.84-9.25 127.84-10.1L127.84-10.1Q126.64-10.1 125.77-10.55 124.89-11 124.49-11.68 124.09-12.35 124.09-13.15L124.09-13.15Q124.09-14.95 125.04-15.85 125.99-16.75 128.29-16.75L128.29-16.75 134.34-16.75Q137.24-16.75 138.84-15.5 140.44-14.25 140.44-11.1L140.44-11.1Q140.44-6.5 136.04-3.08 131.64 0.35 125.59 0.35L125.59 0.35Q120.04 0.35 115.72-1.65 111.39-3.65 108.87-7.63 106.34-11.6 106.34-17.05L106.34-17.05Q106.34-25.15 111.24-29.85 116.14-34.55 124.24-34.55L124.24-34.55Q127.44-34.55 129.99-34.08 132.54-33.6 134.22-32.8 135.89-32 137.02-30.88 138.14-29.75 138.62-28.5 139.09-27.25 139.09-25.9L139.09-25.9Q139.09-24.95 138.79-24.08 138.49-23.2 137.72-22.33 136.94-21.45 135.34-20.9 133.74-20.35 131.49-20.35L131.49-20.35Q128.19-20.35 127.29-21.33 126.39-22.3 126.39-25.85ZM157.89-28.7L157.89-7.5Q157.89-3.6 156.44-1.8 154.99 0 152.04 0L152.04 0Q149.14 0 147.77-1.55 146.39-3.1 146.39-7.1L146.39-7.1 146.39-28.25Q146.39-34.25 152.04-34.25L152.04-34.25Q154.94-34.25 156.42-33.15 157.89-32.05 157.89-28.7L157.89-28.7ZM175.69-13.4L175.69-6.95Q175.69-3.55 174.19-1.78 172.69 0 169.84 0L169.84 0Q167.14 0 165.64-1.63 164.14-3.25 164.14-7.15L164.14-7.15 164.14-28.25Q164.14-29.85 164.56-31.03 164.99-32.2 165.79-32.9 166.59-33.6 167.59-33.93 168.59-34.25 169.84-34.25L169.84-34.25 186.24-34.25Q189.14-34.25 190.56-33.35 191.99-32.45 191.99-30.1L191.99-30.1Q191.99-27.9 190.76-27.03 189.54-26.15 186.74-26.15L186.74-26.15 175.69-26.15 175.69-20.3 184.49-20.3Q185.84-20.3 186.76-20.1 187.69-19.9 188.26-19.43 188.84-18.95 189.06-18.28 189.29-17.6 189.29-16.55L189.29-16.55Q189.29-14.85 188.04-14.13 186.79-13.4 184.04-13.4L184.04-13.4 175.69-13.4ZM216.84-15L216.84-7.5Q216.84-3.45 215.39-1.73 213.94 0 210.94 0L210.94 0Q208.03 0 206.69-1.58 205.34-3.15 205.28-7.15L205.28-7.15 205.24-15.25 197.53-24.25Q195.44-26.65 195.44-28.4L195.44-28.4Q195.44-31.15 197.53-32.75L197.53-32.75Q199.53-34.25 201.09-34.25L201.09-34.25Q203.24-34.25 204.94-32.3L204.94-32.3 211.03-25.2 216.14-31.15Q218.69-34.2 221.59-34.2L221.59-34.2Q223.74-34.2 224.94-33L224.94-33Q226.99-30.95 226.99-29.05L226.99-29.05Q226.99-28 226.29-26.83 225.59-25.65 224.04-23.8L224.04-23.8 216.84-15Z" opacity="1" transform="matrix(1,0,0,1,0,0)" fill="#16a249" class="wordmark-text-0" data-fill-palette-color="quaternary" id="text-0"></path></svg></g></svg></g><g transform="matrix(1,0,0,1,83.0592,113.12491845090396)"><svg viewBox="0 0 229.40159999999997 16.012520794958796" height="16.012520794958796" width="229.40159999999997"><g transform="matrix(1,0,0,1,0,0)"><svg width="229.40159999999997" viewBox="-0.1 -35.25 515.69 36" height="16.012520794958796" data-palette-color="#16a249"><path d="M24.95 0L18.5 0 16.8-8.1 7.9-8.1 6.25 0-0.1 0 8.6-34.55 16.3-34.55 24.95 0ZM12.35-29.7L8.9-12.9 15.85-12.9 12.35-29.7ZM45.6-34.55Q51.85-34.55 55.12-31.78 58.4-29 58.4-23.6L58.4-23.6Q58.4-17.85 55.17-15 51.95-12.15 46.05-12.15L46.05-12.15 44.05-12.15 44.05 0 37.7 0 37.7-34.55 45.6-34.55ZM45.7-16.9Q48.95-16.9 50.4-18.4 51.85-19.9 51.85-23.55L51.85-23.55Q51.85-26.85 50.4-28.35 48.95-29.85 45.75-29.85L45.75-29.85 44.05-29.85 44.05-16.9 45.7-16.9ZM62.14-34.55L68.49-34.55 68.49-5.25 79.64-5.25 78.94 0 62.14 0 62.14-34.55ZM104.94 0L98.49 0 96.79-8.1 87.89-8.1 86.24 0 79.89 0 88.59-34.55 96.29-34.55 104.94 0ZM92.34-29.7L88.89-12.9 95.84-12.9 92.34-29.7ZM119.34-35.25Q121.99-35.25 124.01-34.38 126.04-33.5 127.94-31.7L127.94-31.7 124.89-28.05Q123.59-29.25 122.36-29.83 121.14-30.4 119.69-30.4L119.69-30.4Q116.69-30.4 114.99-27.4 113.29-24.4 113.29-17.35L113.29-17.35Q113.29-10.4 114.99-7.38 116.69-4.35 119.79-4.35L119.79-4.35Q121.34-4.35 122.49-4.98 123.64-5.6 125.19-6.9L125.19-6.9 128.24-3.4Q126.64-1.6 124.39-0.43 122.14 0.75 119.34 0.75L119.34 0.75Q113.49 0.75 110.04-3.8 106.59-8.35 106.59-17.35L106.59-17.35Q106.59-23.3 108.24-27.3 109.89-31.3 112.76-33.27 115.64-35.25 119.34-35.25L119.34-35.25ZM131.64-34.55L148.79-34.55 148.14-29.8 137.99-29.8 137.99-19.9 146.84-19.9 146.84-15.2 137.99-15.2 137.99-4.8 148.79-4.8 148.79 0 131.64 0 131.64-34.55ZM169.48 0L163.13 0 163.13-34.55 179.83-34.55 179.13-29.8 169.48-29.8 169.48-19.25 177.88-19.25 177.88-14.5 169.48-14.5 169.48 0ZM194.73-35.25Q200.83-35.25 204.13-30.8 207.43-26.35 207.43-17.3L207.43-17.3Q207.43-8.35 204.13-3.8 200.83 0.75 194.73 0.75L194.73 0.75Q188.68 0.75 185.35-3.75 182.03-8.25 182.03-17.25L182.03-17.25Q182.03-26.15 185.35-30.7 188.68-35.25 194.73-35.25L194.73-35.25ZM194.73-30.45Q191.68-30.45 190.2-27.4 188.73-24.35 188.73-17.25L188.73-17.25Q188.73-10.1 190.23-7.13 191.73-4.15 194.73-4.15L194.73-4.15Q197.83-4.15 199.3-7.1 200.78-10.05 200.78-17.3L200.78-17.3Q200.78-24.4 199.28-27.43 197.78-30.45 194.73-30.45L194.73-30.45ZM234.53 0L227.68 0 221.58-13.95 220.98-13.95 218.53-13.95 218.53 0 212.18 0 212.18-34.55 220.33-34.55Q232.83-34.55 232.83-24.4L232.83-24.4Q232.83-21.25 231.43-18.82 230.03-16.4 227.23-15.15L227.23-15.15 234.53 0ZM220.63-18.55Q223.58-18.55 224.9-19.95 226.23-21.35 226.23-24.4L226.23-24.4Q226.23-27.25 224.85-28.58 223.48-29.9 220.33-29.9L220.33-29.9 218.53-29.9 218.53-18.55 220.63-18.55ZM262.42-34.55L268.92-34.55 259.82-13.15 259.82 0 253.42 0 253.42-13.1 244.32-34.55 251.07-34.55 256.72-18.3 262.42-34.55ZM283.12-35.25Q289.22-35.25 292.52-30.8 295.82-26.35 295.82-17.3L295.82-17.3Q295.82-8.35 292.52-3.8 289.22 0.75 283.12 0.75L283.12 0.75Q277.07 0.75 273.74-3.75 270.42-8.25 270.42-17.25L270.42-17.25Q270.42-26.15 273.74-30.7 277.07-35.25 283.12-35.25L283.12-35.25ZM283.12-30.45Q280.07-30.45 278.59-27.4 277.12-24.35 277.12-17.25L277.12-17.25Q277.12-10.1 278.62-7.13 280.12-4.15 283.12-4.15L283.12-4.15Q286.22-4.15 287.69-7.1 289.17-10.05 289.17-17.3L289.17-17.3Q289.17-24.4 287.67-27.43 286.17-30.45 283.12-30.45L283.12-30.45ZM321.92-34.55L321.92-9.7Q321.92-5.15 319.09-2.23 316.27 0.7 311.02 0.7L311.02 0.7Q305.67 0.7 302.87-2.18 300.07-5.05 300.07-9.7L300.07-9.7 300.07-34.55 306.42-34.55 306.42-10Q306.42-7.1 307.52-5.68 308.62-4.25 311.02-4.25L311.02-4.25Q313.37-4.25 314.47-5.68 315.57-7.1 315.57-10L315.57-10 315.57-34.55 321.92-34.55ZM349.76 0L342.91 0 336.81-13.95 336.21-13.95 333.76-13.95 333.76 0 327.41 0 327.41-34.55 335.56-34.55Q348.06-34.55 348.06-24.4L348.06-24.4Q348.06-21.25 346.66-18.82 345.26-16.4 342.46-15.15L342.46-15.15 349.76 0ZM335.86-18.55Q338.81-18.55 340.14-19.95 341.46-21.35 341.46-24.4L341.46-24.4Q341.46-27.25 340.09-28.58 338.71-29.9 335.56-29.9L335.56-29.9 333.76-29.9 333.76-18.55 335.86-18.55ZM371.56-35.25Q374.56-35.25 376.86-34.2 379.16-33.15 381.11-31.05L381.11-31.05 378.16-27.65Q376.61-29.05 375.13-29.75 373.66-30.45 372.01-30.45L372.01-30.45Q370.11-30.45 369.01-29.28 367.91-28.1 367.91-26.2L367.91-26.2Q367.91-24.3 369.06-23.1 370.21-21.9 373.56-20.6L373.56-20.6Q377.86-18.85 379.88-16.5 381.91-14.15 381.91-9.85L381.91-9.85Q381.91-6.9 380.56-4.48 379.21-2.05 376.68-0.65 374.16 0.75 370.81 0.75L370.81 0.75Q367.36 0.75 364.81-0.48 362.26-1.7 360.16-3.95L360.16-3.95 363.36-7.45Q365.16-5.85 366.81-5 368.46-4.15 370.41-4.15L370.41-4.15Q372.71-4.15 373.98-5.58 375.26-7 375.26-9.45L375.26-9.45Q375.26-11.6 374.13-12.98 373.01-14.35 369.96-15.5L369.96-15.5Q365.36-17.35 363.33-19.75 361.31-22.15 361.31-25.75L361.31-25.75Q361.31-28.5 362.63-30.65 363.96-32.8 366.31-34.02 368.66-35.25 371.56-35.25L371.56-35.25ZM383.46-34.55L405.01-34.55 404.31-29.55 397.21-29.55 397.21 0 390.86 0 390.86-29.55 383.46-29.55 383.46-34.55ZM419.5-35.25Q425.6-35.25 428.9-30.8 432.2-26.35 432.2-17.3L432.2-17.3Q432.2-8.35 428.9-3.8 425.6 0.75 419.5 0.75L419.5 0.75Q413.45 0.75 410.13-3.75 406.8-8.25 406.8-17.25L406.8-17.25Q406.8-26.15 410.13-30.7 413.45-35.25 419.5-35.25L419.5-35.25ZM419.5-30.45Q416.45-30.45 414.98-27.4 413.5-24.35 413.5-17.25L413.5-17.25Q413.5-10.1 415-7.13 416.5-4.15 419.5-4.15L419.5-4.15Q422.6-4.15 424.08-7.1 425.55-10.05 425.55-17.3L425.55-17.3Q425.55-24.4 424.05-27.43 422.55-30.45 419.5-30.45L419.5-30.45ZM459.3 0L452.45 0 446.35-13.95 445.75-13.95 443.3-13.95 443.3 0 436.95 0 436.95-34.55 445.1-34.55Q457.6-34.55 457.6-24.4L457.6-24.4Q457.6-21.25 456.2-18.82 454.8-16.4 452-15.15L452-15.15 459.3 0ZM445.4-18.55Q448.35-18.55 449.68-19.95 451-21.35 451-24.4L451-24.4Q451-27.25 449.63-28.58 448.25-29.9 445.1-29.9L445.1-29.9 443.3-29.9 443.3-18.55 445.4-18.55ZM462.5-34.55L468.85-34.55 468.85 0 462.5 0 462.5-34.55ZM474.85-34.55L492-34.55 491.35-29.8 481.2-29.8 481.2-19.9 490.05-19.9 490.05-15.2 481.2-15.2 481.2-4.8 492-4.8 492 0 474.85 0 474.85-34.55ZM505.24-35.25Q508.24-35.25 510.54-34.2 512.84-33.15 514.79-31.05L514.79-31.05 511.84-27.65Q510.29-29.05 508.82-29.75 507.34-30.45 505.69-30.45L505.69-30.45Q503.79-30.45 502.69-29.28 501.59-28.1 501.59-26.2L501.59-26.2Q501.59-24.3 502.74-23.1 503.89-21.9 507.24-20.6L507.24-20.6Q511.54-18.85 513.57-16.5 515.59-14.15 515.59-9.85L515.59-9.85Q515.59-6.9 514.24-4.48 512.89-2.05 510.37-0.65 507.84 0.75 504.49 0.75L504.49 0.75Q501.04 0.75 498.49-0.48 495.94-1.7 493.84-3.95L493.84-3.95 497.04-7.45Q498.84-5.85 500.49-5 502.14-4.15 504.09-4.15L504.09-4.15Q506.39-4.15 507.67-5.58 508.94-7 508.94-9.45L508.94-9.45Q508.94-11.6 507.82-12.98 506.69-14.35 503.64-15.5L503.64-15.5Q499.04-17.35 497.02-19.75 494.99-22.15 494.99-25.75L494.99-25.75Q494.99-28.5 496.32-30.65 497.64-32.8 499.99-34.02 502.34-35.25 505.24-35.25L505.24-35.25Z" opacity="1" transform="matrix(1,0,0,1,0,0)" fill="#16a249" class="slogan-text-1" data-fill-palette-color="secondary" id="text-1"></path></svg></g></svg></g></svg></g></svg></g><g></g></svg></g><defs></defs></svg><rect width="395.52" height="129.13743924586277" fill="none" stroke="none" visibility="hidden"></rect></g></svg></g></svg>